<?xml version="1.0" encoding="iso-8859-1"?>
<!-- Uploaded to: SVG Repo, www.svgrepo.com, Generator: SVG Repo Mixer Tools -->
<!DOCTYPE svg PUBLIC "-//W3C//DTD SVG 1.1//EN" "http://www.w3.org/Graphics/SVG/1.1/DTD/svg11.dtd">
<svg fill="#000000" version="1.1" id="Capa_1" xmlns="http://www.w3.org/2000/svg" xmlns:xlink="http://www.w3.org/1999/xlink" 
	 viewBox="0 0 276.477 276.477" xml:space="preserve">
<g id="Entrada">
	<path d="M172.534,137.371H71.081c-11.627,0-21.086,9.459-21.086,21.086v37.365c0,11.627,9.459,21.086,21.086,21.086h101.453
		c11.627,0,21.086-9.459,21.086-21.086v-37.365C193.62,146.83,184.161,137.371,172.534,137.371z M185.62,195.822
		c0,7.216-5.87,13.086-13.086,13.086H71.081c-7.216,0-13.086-5.87-13.086-13.086v-37.365c0-7.216,5.87-13.086,13.086-13.086h101.453
		c7.216,0,13.086,5.87,13.086,13.086V195.822z"/>
	<path d="M275.973,141.315c0.644-1.47,0.672-3.136,0.078-4.626s-1.759-2.681-3.236-3.306c-7.805-3.303-11.468-12.34-8.166-20.146
		c1.291-3.052-0.136-6.572-3.188-7.863L94.772,34.844c-1.466-0.62-3.118-0.633-4.592-0.035c-1.475,0.598-2.652,1.757-3.271,3.223
		c-1.6,3.781-4.576,6.713-8.381,8.255c-3.807,1.544-7.982,1.512-11.765-0.089c-1.478-0.626-3.145-0.633-4.626-0.021
		c-1.483,0.612-2.659,1.792-3.267,3.277l-25.626,62.719h-5.122c-3.313,0-6,2.687-6,6c0,8.891-7.232,16.123-16.123,16.123
		c-3.313,0-6,2.687-6,6v73.689c0,3.313,2.687,6,6,6c8.891,0,16.123,7.232,16.123,16.123c0,3.313,2.687,6,6,6h187.37
		c3.313,0,6-2.687,6-6c0-8.891,7.232-16.123,16.123-16.123c2.458,0,4.567-1.479,5.495-3.594l0.001,0.001l0.018-0.041
		c0.007-0.016,0.014-0.032,0.021-0.049L275.973,141.315z M67.936,58.995c5.041,0.909,10.24,0.382,15.101-1.588
		c4.882-1.979,8.997-5.242,11.982-9.43l156.852,66.369c-1.877,10.349,2.411,20.961,10.946,27.101l-19.2,43.866v-45.018
		c0-3.313-2.687-6-6-6c-8.891,0-16.123-7.232-16.123-16.123c0-3.313-2.687-6-6-6H46.209L67.936,58.995z M231.616,208.629
		c-10.7,2.334-19.145,10.778-21.479,21.479H33.479C31.145,219.407,22.7,210.963,12,208.629V145.65
		c10.7-2.334,19.145-10.778,21.479-21.479h176.659c2.334,10.7,10.778,19.145,21.479,21.479V208.629z"/>
	<rect x="25.84" y="146.371" width="8" height="63.5"/>
</g>
</svg>